<svg xmlns="http://www.w3.org/2000/svg" viewBox="611 483 12.269 20">
  <defs>
    <style>
      .cls-1 {
        fill: #868686;
      }
    </style>
  </defs>
  <g id="location" transform="translate(818 525)">
    <g id="Vector">
      <path id="Path_17" data-name="Path 17" class="cls-1" d="M6.078,0A.455.455,0,0,0,5.7.323L.02,19.411a.455.455,0,0,0,.689.511L4.1,17.614a.455.455,0,1,0-.511-.753L1.249,18.452,6.135,2.041,11.02,18.452,6.39,15.306a.455.455,0,0,0-.511.753l5.681,3.863a.454.454,0,0,0,.689-.511L6.568.323A.455.455,0,0,0,6.078,0ZM5,15.91a.454.454,0,1,0,.454.454A.454.454,0,0,0,5,15.91Z" transform="translate(-207 -42)"/>
    </g>
  </g>
</svg>
