<svg width="22" height="20" viewBox="0 0 22 20" version="1.1" xmlns="http://www.w3.org/2000/svg" xmlns:xlink="http://www.w3.org/1999/xlink">
<title>Vector</title>
<desc>Created using Figma</desc>
<g id="Canvas" transform="translate(215 41)">
<g id="Vector">
<use xlink:href="#path0_fill" transform="translate(-215 -41)" fill="#868686"/>
<use xlink:href="#path1_fill" transform="translate(-215 -41)" fill="#868686"/>
</g>
</g>
<defs>
<path id="path0_fill" d="M 0 17.1257C 0 18.994 5.48503 20 10.6587 20C 15.8323 20 21.3174 18.994 21.3174 17.1257C 21.3174 16.0958 19.3054 14.7784 13.7246 14.3713L 15.7605 12.3353C 17.1737 10.9222 17.9401 8.98204 17.8683 6.99401C 17.7964 4.98204 16.9341 3.13772 15.4252 1.79641C 12.6946 -0.598802 8.5988 -0.598802 5.89222 1.79641C 4.38323 3.13772 3.49701 4.98204 3.4491 6.99401C 3.37725 8.98204 4.16767 10.9222 5.55689 12.3353L 7.59281 14.3713C 1.98802 14.8024 0 16.1198 0 17.1257ZM 3.92814 7.01796C 3.97605 5.1497 4.79042 3.42515 6.20359 2.15569C 7.47305 1.02994 9.05389 0.479042 10.6587 0.479042C 12.2395 0.479042 13.8443 1.02994 15.1138 2.15569C 16.5269 3.4012 17.3413 5.12575 17.3892 7.01796C 17.4371 8.88623 16.7425 10.6587 15.4252 12L 11.1617 16.2635C 10.8982 16.5269 10.4192 16.5269 10.1557 16.2635L 5.89222 12C 4.5509 10.6587 3.85629 8.91018 3.92814 7.01796ZM 8.0479 14.8263L 9.82036 16.5988C 10.0359 16.8144 10.3473 16.9581 10.6587 16.9581C 10.9701 16.9581 11.2814 16.8383 11.497 16.5988L 13.2695 14.8263C 18.1796 15.1377 20.8383 16.2635 20.8383 17.1257C 20.8383 18.2515 16.6467 19.521 10.6587 19.521C 4.67066 19.521 0.479042 18.2515 0.479042 17.1257C 0.479042 16.2395 3.11377 15.1377 8.0479 14.8263Z"/>
<path id="path1_fill" d="M 12.3353 8.40719C 13.2455 7.49701 13.2455 5.98802 12.3353 5.07785C 11.4251 4.16767 9.91616 4.16767 9.00598 5.07785C 8.55089 5.53293 8.31137 6.10779 8.31137 6.75449C 8.31137 7.4012 8.55089 7.97605 9.00598 8.43114C 9.46107 8.88623 10.0599 9.12575 10.6826 9.12575C 11.2575 9.1018 11.8563 8.88623 12.3353 8.40719ZM 8.76646 6.75449C 8.76646 6.2515 8.95808 5.77246 9.31736 5.41317C 9.67664 5.05389 10.1557 4.86228 10.6587 4.86228C 11.1617 4.86228 11.6407 5.05389 12 5.41317C 12.7425 6.15569 12.7425 7.35329 12 8.07186C 11.2575 8.81437 10.0599 8.81437 9.34131 8.07186C 8.98203 7.71258 8.76646 7.25749 8.76646 6.75449Z"/>
</defs>
</svg>
