<svg width="21" height="20" viewBox="0 0 21 20" version="1.1" xmlns="http://www.w3.org/2000/svg" xmlns:xlink="http://www.w3.org/1999/xlink">
<title>contacts_icon</title>
<desc>Created using Figma</desc>
<g id="Canvas" transform="translate(99 -120)">
<g id="contacts_icon">
<g id="Vector">
<use xlink:href="#path0_fill" transform="translate(-98.5 120)" fill="#868686"/>
</g>
<g id="Vector">
<use xlink:href="#path1_fill" transform="translate(-86.35 120.1)" fill="#868686"/>
</g>
<g id="Vector">
<use xlink:href="#path2_fill" transform="translate(-95 125.225)" fill="#868686"/>
</g>
</g>
</g>
<defs>
<path id="path0_fill" d="M 5.6 11.3L 3.5 11.3C 2.8 11.3 2.2 11.2 1.7 11C 1.3 10.9 1 10.7 0.7 10.5C 0.3 10.2 0 9.6 0 9.1C 0 8.6 0.2 8.2 0.5 7.8C 1.2 7.1 2.2 6.6 3.5 6.2C 3.5 6.2 3.6 6.2 3.6 6.1C 3.6 6.1 3.5 6 3.5 5.9C 2.5 4.7 2 3.4 2.2 2.4C 2.3 1.7 2.7 1 3.3 0.6C 4.3 -0.2 5.8 -0.2 6.8 0.6C 7.4 1.1 7.8 1.7 7.9 2.4C 8 3.5 7.6 4.7 6.7 5.9C 6.5 6.1 6.2 6.1 6 6C 5.8 5.8 5.7 5.5 5.9 5.3C 6.7 4.3 7 3.3 6.9 2.6C 6.9 2.1 6.6 1.7 6.2 1.4C 5.5 0.9 4.6 0.9 3.9 1.4C 3.5 1.7 3.2 2.1 3.2 2.5C 3.1 3.3 3.5 4.2 4.2 5.2C 4.4 5.5 4.7 5.8 4.6 6.1C 4.6 6.5 4.3 6.7 4 6.9C 4 6.9 3.9 7 3.8 7C 2.7 7.5 1.9 7.9 1.3 8.5C 1.2 8.7 1.1 8.9 1.1 9.1C 1.1 9.4 1.2 9.6 1.4 9.7C 1.6 9.8 1.8 9.9 2.1 10C 2.5 10.2 3 10.3 3.5 10.3L 5.6 10.3C 5.9 10.3 6.1 10.5 6.1 10.8C 6.1 11.1 5.9 11.3 5.6 11.3Z"/>
<path id="path1_fill" d="M 4.35 11.2L 2.25 11.2C 1.95 11.2 1.75 11 1.75 10.7C 1.75 10.4 1.95 10.2 2.25 10.2L 4.35 10.2C 4.85 10.2 5.35 10.1 5.85 10C 6.15 9.9 6.35 9.8 6.55 9.7C 6.75 9.6 6.85 9.3 6.85 9.1C 6.85 8.9 6.75 8.7 6.65 8.5C 6.15 7.9 5.25 7.5 4.05 7.1C 3.95 7.1 3.95 7 3.85 7C 3.55 6.8 3.35 6.5 3.25 6.2C 3.25 5.8 3.45 5.5 3.75 5.3C 4.45 4.3 4.85 3.4 4.75 2.6C 4.65 2.1 4.45 1.7 4.05 1.4C 3.35 0.9 2.35 0.9 1.75 1.4C 1.35 1.7 1.15 2.1 1.05 2.6C 0.95 3.4 1.35 4.3 2.05 5.3C 2.25 5.5 2.15 5.8 1.95 6C 1.75 6.2 1.45 6.1 1.25 5.9C 0.25 4.7 -0.15 3.5 0.0499998 2.4C 0.15 1.7 0.55 1 1.15 0.6C 2.15 -0.2 3.65 -0.2 4.65 0.6C 5.25 1.1 5.65 1.7 5.75 2.4C 5.85 3.5 5.45 4.7 4.55 5.9C 4.45 6 4.45 6.1 4.35 6.1C 4.35 6.1 4.45 6.1 4.45 6.2C 5.75 6.6 6.75 7.2 7.35 7.9C 7.65 8.2 7.85 8.7 7.85 9.2C 7.85 9.8 7.55 10.3 7.15 10.6C 6.85 10.8 6.55 11 6.15 11.1C 5.55 11.1 4.95 11.2 4.35 11.2Z"/>
<path id="path2_fill" d="M 8.6 14.775L 4.5 14.775C 3.6 14.775 2.8 14.675 2.1 14.375C 1.6 14.175 1.2 13.975 0.9 13.675C 0.3 13.375 0 12.675 0 11.975C 0 11.375 0.2 10.875 0.6 10.375C 1.4 9.475 2.7 8.775 4.5 8.175C 4.6 8.075 4.7 7.975 4.8 7.875C 4.8 7.875 4.7 7.775 4.5 7.575C 3.2 5.875 2.6 4.375 2.8 2.975C 3 2.075 3.4 1.275 4.2 0.675C 5.5 -0.225 7.5 -0.225 8.7 0.675C 9.5 1.275 10 2.075 10.1 2.975C 10.3 4.375 9.7 5.975 8.5 7.575C 8.2 7.875 8.2 7.975 8.2 7.975C 8.2 7.975 8.4 8.075 8.5 8.175C 10.3 8.775 11.6 9.475 12.4 10.375C 12.8 10.775 13 11.375 13 11.975C 13 12.675 12.7 13.375 12.2 13.775C 11.9 14.075 11.5 14.275 11 14.475C 10.2 14.675 9.4 14.775 8.6 14.775ZM 6.5 0.875C 5.9 0.875 5.3 1.075 4.8 1.375C 4.2 1.775 3.9 2.375 3.8 3.075C 3.7 4.175 4.2 5.475 5.2 6.875C 5.5 7.175 5.8 7.475 5.7 7.975C 5.7 8.375 5.3 8.675 5 8.975C 5 8.975 4.9 9.075 4.8 9.075C 3.1 9.575 2 10.275 1.2 11.075C 1.1 11.275 1 11.675 1 11.975C 1 12.375 1.2 12.775 1.5 12.975C 1.7 13.175 2.1 13.375 2.5 13.475C 3.1 13.675 3.8 13.775 4.5 13.775L 8.6 13.775C 9.3 13.775 10 13.675 10.6 13.475C 11 13.375 11.3 13.175 11.6 12.975C 11.9 12.775 12.1 12.375 12.1 11.975C 12.1 11.675 12 11.275 11.7 11.075C 11 10.275 9.8 9.675 8.1 9.075C 8 9.075 8 8.975 7.9 8.975C 7.6 8.675 7.2 8.375 7.2 7.975C 7.2 7.575 7.5 7.175 7.8 6.875C 8.8 5.575 9.3 4.175 9.2 3.075C 9.1 2.375 8.8 1.875 8.2 1.375C 7.7 1.075 7.1 0.875 6.5 0.875Z"/>
</defs>
</svg>
