<svg xmlns="http://www.w3.org/2000/svg" viewBox="2566.7 24422 18 18">
  <g id="noun_1384344_cc" transform="translate(2544 24399)" fill="#cacaca">
    <path id="Path_86" data-name="Path 86" d="M39.009,23.5,23.1,39.41A.994.994,0,1,0,24.49,40.8L40.4,24.891A.994.994,0,0,0,39.009,23.5Z" transform="translate(0 -0.201)"/>
    <path id="Path_87" data-name="Path 87" d="M26.514,30.028A3.514,3.514,0,1,0,23,26.514,3.514,3.514,0,0,0,26.514,30.028Zm0-5.039a1.525,1.525,0,1,1-1.525,1.525A1.558,1.558,0,0,1,26.514,24.989Z" transform="translate(-0.201)"/>
    <path id="Path_88" data-name="Path 88" d="M59.314,55.8a3.514,3.514,0,1,0,3.514,3.514A3.514,3.514,0,0,0,59.314,55.8Zm0,5.039a1.525,1.525,0,1,1,1.525-1.525A1.558,1.558,0,0,1,59.314,60.839Z" transform="translate(-22.128 -21.927)"/>
  </g>
</svg>
