<svg width="14" height="20" viewBox="0 0 14 20" version="1.1" xmlns="http://www.w3.org/2000/svg" xmlns:xlink="http://www.w3.org/1999/xlink">
<title>Vector</title>
<desc>Created using Figma</desc>
<g id="Canvas" transform="translate(198 40)">
<g id="Vector">
<use xlink:href="#path0_fill" transform="translate(-198 -40)" fill="#868686"/>
<use xlink:href="#path1_fill" transform="translate(-198 -40)" fill="#868686"/>
<use xlink:href="#path2_fill" transform="translate(-198 -40)" fill="#868686"/>
</g>
</g>
<defs>
<path id="path0_fill" d="M 6.80851 20C 1.19149 20 0 17.234 0 14.8936C 0 11.2766 4.21277 3.82979 6.80851 3.82979C 9.40426 3.82979 13.617 11.2766 13.617 14.8936C 13.617 17.234 12.4255 20 6.80851 20ZM 6.80851 4.68085C 5.02128 4.68085 0.851064 11.2766 0.851064 14.8936C 0.851064 17.7021 2.85106 19.1489 6.80851 19.1489C 10.766 19.1489 12.766 17.7021 12.766 14.8936C 12.766 11.2766 8.59574 4.68085 6.80851 4.68085Z"/>
<path id="path1_fill" d="M 6.80851 4.68085C 5.40426 4.68085 3.19148 3.02128 3.19148 1.06383C 3.19148 0.170213 3.57446 0 3.91489 0C 4.25531 0 4.55318 0.212766 4.97872 0.510638C 5.48936 0.851064 6.17021 1.31915 6.8085 1.31915C 7.48936 1.31915 8.12765 0.893617 8.63829 0.510638C 9.06382 0.212766 9.3617 0 9.70212 0C 10.0425 0 10.4255 0.170213 10.4255 1.06383C 10.4255 3.02128 8.21277 4.68085 6.80851 4.68085ZM 4.04255 0.93617C 4.04255 0.978723 4.04255 1.02128 4.04255 1.10638C 4.04255 2.59574 5.91489 3.87234 6.8085 3.87234C 7.70212 3.87234 9.57446 2.59574 9.57446 1.10638C 9.57446 1.06383 9.57446 0.978723 9.57446 0.93617C 9.4468 1.02128 9.27659 1.10638 9.14893 1.23404C 8.55318 1.61702 7.74467 2.17021 6.85106 2.17021C 5.91489 2.17021 5.10638 1.61702 4.55318 1.23404C 4.34042 1.10638 4.17021 0.978723 4.04255 0.93617Z"/>
<path id="path2_fill" d="M 6.51063 16.3404L 6.51063 15.4468C 5.99999 15.4468 5.48936 15.2766 5.19148 15.0638L 5.40425 14.4681C 5.70212 14.6809 6.17021 14.8511 6.63829 14.8511C 7.27659 14.8511 7.65957 14.5106 7.65957 14C 7.65957 13.5319 7.31914 13.234 6.68084 12.9787C 5.78723 12.6383 5.23404 12.2128 5.23404 11.4894C 5.23404 10.766 5.74467 10.2128 6.55318 10.0851L 6.55318 9.19149L 7.10638 9.19149L 7.10638 10.0426C 7.61701 10.0426 7.99999 10.2128 8.25531 10.3404L 8.04255 10.8936C 7.87233 10.8085 7.48935 10.5957 6.93616 10.5957C 6.25531 10.5957 5.99999 10.9787 5.99999 11.3617C 5.99999 11.8298 6.34042 12.0426 7.06382 12.3404C 7.95744 12.7234 8.42552 13.1489 8.42552 13.9149C 8.42552 14.5957 7.95744 15.234 7.06382 15.4043L 7.06382 16.2979L 6.51063 16.2979L 6.51063 16.3404Z"/>
</defs>
</svg>
