<svg xmlns="http://www.w3.org/2000/svg" viewBox="664 550 24.039 20">
  <defs>
    <style>
      .cls-1 {
        fill: #868686;
      }
    </style>
  </defs>
  <g id="handshake_icon" transform="translate(668 451)">
    <g id="handshake_icon-2" data-name="handshake_icon">
      <g id="Vector">
        <path id="Path_30" data-name="Path 30" class="cls-1" d="M8.253,8.334c.28-.24.6-.441.881-.681C9.7,7.212,10.3,6.731,10.9,6.29a10.5,10.5,0,0,0,1-.881,16.617,16.617,0,0,1,1.282-1.082,4.687,4.687,0,0,1,1.362-.6c.28-.12.6-.2.922-.361.441-.2.841-.441,1.242-.641a1.254,1.254,0,0,1,.4-.2l3.806,9.055,3.125-1.322L19.632,0,16.507,1.322l.32.761c-.16.08-.28.16-.441.24-.4.24-.8.441-1.2.641a7.223,7.223,0,0,1-.841.321,6.608,6.608,0,0,0-1.442.641c-.28.2-.561.441-.841.641l-2.8-2,.12-.16L6.651.4,0,9.335l2.724,2,.12-.16.921.761-.12.08a1.458,1.458,0,0,0-.24,2.043,1.59,1.59,0,0,0,.962.561A1.509,1.509,0,0,0,5.449,14.3l.361-.28a1.455,1.455,0,0,0-.28.681,1.51,1.51,0,0,0,.321,1.082,1.59,1.59,0,0,0,.962.561,1.509,1.509,0,0,0,1.082-.321l.16-.12a1.079,1.079,0,0,0-.2.6,1.509,1.509,0,0,0,.321,1.082,1.59,1.59,0,0,0,.962.561,1.509,1.509,0,0,0,1.082-.321l.2-.16a1.5,1.5,0,0,0,.04,1.763,1.59,1.59,0,0,0,.962.561,1.509,1.509,0,0,0,1.082-.32l.561-.441c.08-.04.12-.12.2-.2l.32.24a1.248,1.248,0,0,0,.721.281h.4a1.522,1.522,0,0,0,1.2-2.043h.32a1.469,1.469,0,0,0,1-.6,1.411,1.411,0,0,0,.281-1.122.944.944,0,0,0-.08-.32h.32a1.469,1.469,0,0,0,1-.6,1.411,1.411,0,0,0,.28-1.122.942.942,0,0,0-.08-.321,1.53,1.53,0,0,0,1-2.764l-1.082-.8h.2a.261.261,0,1,0-.04-.521,8.312,8.312,0,0,1-3.365-.761,10.965,10.965,0,0,0-2.644-.761c-1.442-.16-2.364.641-3.285,1.4l-.6.481a.864.864,0,0,1-1.162-.12.812.812,0,0,1-.16-.6A1.635,1.635,0,0,1,8.253,8.334ZM19.351.641,23.4,9.976l-2.2.962L17.148,1.6ZM2.6,10.657.681,9.215l6.09-8.173L8.694,2.484ZM5.168,13.9a.911.911,0,0,1-.721.2,1.041,1.041,0,0,1-.641-.361,1,1,0,0,1,.16-1.362l1.4-1.122a.911.911,0,0,1,.721-.2,1.041,1.041,0,0,1,.641.361,1,1,0,0,1-.16,1.362Zm2.444,1.723a.911.911,0,0,1-.721.2,1.041,1.041,0,0,1-.641-.361.911.911,0,0,1-.2-.721A1.041,1.041,0,0,1,6.41,14.1l1.563-1.2a.911.911,0,0,1,.721-.2,1.041,1.041,0,0,1,.641.361.91.91,0,0,1,.2.721,1.041,1.041,0,0,1-.361.641Zm2.284,1.8a.911.911,0,0,1-.721.2,1.041,1.041,0,0,1-.641-.361.91.91,0,0,1-.2-.721,1.041,1.041,0,0,1,.361-.641l1.2-.962a.911.911,0,0,1,.721-.2,1.041,1.041,0,0,1,.641.361,1,1,0,0,1-.16,1.362Zm2.885,1.362-.561.441a.911.911,0,0,1-.721.2,1.042,1.042,0,0,1-.641-.361,1,1,0,0,1,.16-1.362l.561-.441a.91.91,0,0,1,.721-.2,1.041,1.041,0,0,1,.641.361A1,1,0,0,1,12.781,18.791ZM7.733,9.776a1.392,1.392,0,0,0,.881.481,1.244,1.244,0,0,0,.962-.28l.6-.481C11.1,8.734,11.9,8.053,13.1,8.213a11,11,0,0,1,2.524.721,14.3,14.3,0,0,0,2.444.761l1.683,1.282A1.03,1.03,0,0,1,18.51,12.62l-1.2-.881a.257.257,0,0,0-.321.4l1.2.881a.935.935,0,0,1,.4.681,1.031,1.031,0,0,1-1.643.962l-1.2-.882a.257.257,0,1,0-.32.4l1.2.881a1,1,0,0,1,.2,1.442.935.935,0,0,1-.681.4,1,1,0,0,1-.761-.2l-1.2-.881a.257.257,0,1,0-.32.4l1.2.881a1,1,0,0,1,.2,1.442.934.934,0,0,1-.681.4,1,1,0,0,1-.761-.2l-.361-.281a1.453,1.453,0,0,0-.2-1.442,1.59,1.59,0,0,0-.962-.561,1.233,1.233,0,0,0-.761.12,1.461,1.461,0,0,0,.08-1.923,1.59,1.59,0,0,0-.962-.561,1.489,1.489,0,0,0-.922.2,1.77,1.77,0,0,0,.24-.641,1.51,1.51,0,0,0-.321-1.082,1.59,1.59,0,0,0-.962-.561,1.509,1.509,0,0,0-1.082.321l-.481.4a1.5,1.5,0,0,0-.04-1.763,1.59,1.59,0,0,0-.962-.561,1.509,1.509,0,0,0-1.082.321l-.921.721-1-.681L8.934,2.965l2.724,1.963-.12.12c-.321.28-.641.6-.962.841-.6.441-1.162.921-1.763,1.362-.28.24-.561.441-.881.681a1.221,1.221,0,0,0-.481.881A1.16,1.16,0,0,0,7.733,9.776Z" transform="translate(-4 99)"/>
      </g>
    </g>
  </g>
</svg>
