<svg width="13" height="20" viewBox="0 0 13 20" version="1.1" xmlns="http://www.w3.org/2000/svg" xmlns:xlink="http://www.w3.org/1999/xlink">
<title>Vector</title>
<desc>Created using Figma</desc>
<g id="Canvas" transform="translate(207 42)">
<g id="Vector">
<use xlink:href="#path0_fill" transform="translate(-207 -42)" fill="#868686"/>
</g>
</g>
<defs>
<path id="path0_fill" d="M 6.0777 0.00333344C 5.99085 0.0146699 5.90912 0.0508606 5.84235 0.107551C 5.77558 0.164242 5.72662 0.239018 5.70134 0.322882L 0.0204727 19.4106C -0.00747812 19.5006 -0.00679298 19.597 0.0224331 19.6865C 0.0516591 19.7761 0.107982 19.8543 0.183615 19.9104C 0.259248 19.9666 0.350455 19.9978 0.444625 19.9999C 0.538794 20.0019 0.631274 19.9747 0.709278 19.9219L 4.1036 17.614C 4.15304 17.5805 4.19538 17.5375 4.2282 17.4876C 4.26103 17.4376 4.2837 17.3817 4.29492 17.323C 4.30613 17.2643 4.30568 17.204 4.29358 17.1455C 4.28148 17.087 4.25797 17.0314 4.22439 16.982C 4.19082 16.9326 4.14783 16.8902 4.0979 16.8574C 4.04796 16.8246 3.99205 16.8019 3.93335 16.7907C 3.87466 16.7795 3.81433 16.78 3.75581 16.7921C 3.6973 16.8042 3.64174 16.8277 3.59232 16.8613L 1.24896 18.452L 6.13451 2.04135L 11.0201 18.452L 6.39015 15.3062C 6.34073 15.2726 6.28517 15.2491 6.22666 15.237C 6.16816 15.2249 6.10784 15.2244 6.04915 15.2356C 5.99046 15.2469 5.93456 15.2695 5.88463 15.3023C 5.8347 15.3351 5.79172 15.3775 5.75815 15.4269C 5.72458 15.4763 5.70107 15.5319 5.68897 15.5904C 5.67687 15.6489 5.67641 15.7092 5.68762 15.7679C 5.69883 15.8266 5.72149 15.8825 5.75431 15.9324C 5.78712 15.9823 5.82945 16.0253 5.87887 16.0589L 11.5597 19.9219C 11.6377 19.9747 11.7302 20.0019 11.8244 19.9999C 11.9186 19.9978 12.0098 19.9666 12.0854 19.9104C 12.161 19.8543 12.2174 19.7761 12.2466 19.6865C 12.2758 19.597 12.2765 19.5006 12.2485 19.4106L 6.56768 0.322882C 6.53669 0.220464 6.47056 0.132263 6.38093 0.0738094C 6.2913 0.0153562 6.18392 -0.00960056 6.0777 0.00333344L 6.0777 0.00333344ZM 4.99834 15.9098C 4.74734 15.9098 4.54387 16.1132 4.54387 16.3642C 4.54387 16.6152 4.74734 16.8187 4.99834 16.8187C 5.24933 16.8187 5.45281 16.6152 5.45281 16.3642C 5.45281 16.1132 5.24933 15.9098 4.99834 15.9098Z"/>
</defs>
</svg>
