<svg width="50" height="64" viewBox="0 0 50 64" version="1.1" xmlns="http://www.w3.org/2000/svg" xmlns:xlink="http://www.w3.org/1999/xlink">
<title>Vector</title>
<desc>Created using Figma</desc>
<g id="Canvas" transform="translate(13 18)">
<g id="Vector">
<use xlink:href="#path0_fill" transform="translate(-13 -18)" fill="#868686"/>
<use xlink:href="#path1_fill" transform="translate(-13 -18)" fill="#868686"/>
<use xlink:href="#path2_fill" transform="translate(-13 -18)" fill="#868686"/>
</g>
</g>
<defs>
<path id="path0_fill" d="M 21 60L 29 60C 29.6 60 30 59.6 30 59C 30 58.4 29.6 58 29 58L 21 58C 20.4 58 20 58.4 20 59C 20 59.6 20.4 60 21 60Z"/>
<path id="path1_fill" d="M 7 38.9L 7 58C 7 61.3 9.7 64 13 64L 37 64C 40.3 64 43 61.3 43 58L 43 38.9C 46.9 38.4 50 35 50 31C 50 27 46.9 23.6 43 23.1L 43 6C 43 2.7 40.3 0 37 0L 13 0C 9.7 0 7 2.7 7 6L 7 23.1C 3.1 23.6 0 27 0 31C 0 35 3.1 38.4 7 38.9ZM 41 58C 41 60.2 39.2 62 37 62L 13 62C 10.8 62 9 60.2 9 58L 9 56L 41 56L 41 58ZM 41 54L 9 54L 9 39L 41 39L 41 54ZM 9 6C 9 3.8 10.8 2 13 2L 37 2C 39.2 2 41 3.8 41 6L 41 8L 9 8L 9 6ZM 9 10L 41 10L 41 23.1C 40.6 23.1 40.2 23.2 39.9 23.3C 39 18 34.5 14 29 14C 25.4 14 22.1 15.8 20 18.7C 19.1 18.3 18 18 17 18C 13.7 18 11 20.2 10.2 23.3C 9.8 23.2 9.4 23.1 9 23.1L 9 10ZM 8 25C 8.9 25 9.8 25.2 10.6 25.6C 10.9 25.7 11.3 25.7 11.5 25.6C 11.8 25.4 12 25.1 12 24.8C 12.1 22.1 14.3 20.1 17 20.1C 18 20.1 19 20.4 19.8 20.9C 20 21.1 20.3 21.1 20.6 21C 20.9 20.9 21.1 20.8 21.2 20.5C 22.8 17.7 25.8 16 29 16C 33.9 16 37.8 19.8 38 24.7C 38 25 38.2 25.3 38.5 25.5C 38.8 25.7 39.1 25.7 39.5 25.5C 40.3 25.1 41.2 24.9 42.1 24.9C 45.4 24.9 48.1 27.6 48.1 30.9C 48.1 34.2 45.4 36.9 42.1 36.9L 8 36.9C 4.7 36.9 2 34.2 2 30.9C 2 27.6 4.7 25 8 25Z"/>
<path id="path2_fill" d="M 24.3 33.7C 24.4 33.8 24.5 33.9 24.6 33.9C 24.7 34 24.9 34 25 34C 25.1 34 25.3 34 25.4 33.9C 25.5 33.8 25.6 33.8 25.7 33.7L 28.7 30.7C 29.1 30.3 29.1 29.7 28.7 29.3C 28.3 28.9 27.7 28.9 27.3 29.3L 26 30.6L 26 25C 26 24.4 25.6 24 25 24C 24.4 24 24 24.4 24 25L 24 30.6L 22.7 29.3C 22.3 28.9 21.7 28.9 21.3 29.3C 20.9 29.7 20.9 30.3 21.3 30.7L 24.3 33.7Z"/>
</defs>
</svg>
