<svg width="19" height="20" viewBox="0 0 19 20" version="1.1" xmlns="http://www.w3.org/2000/svg" xmlns:xlink="http://www.w3.org/1999/xlink">
<title>Vector</title>
<desc>Created using Figma</desc>
<g id="Canvas" transform="translate(9 629)">
<g id="Vector">
<use xlink:href="#path0_fill" transform="translate(-8.09961 -629)" fill="#868686"/>
</g>
</g>
<defs>
<path id="path0_fill" d="M 11.5093 0C 10.9147 0 10.3701 0.2245 9.89605 0.424084C 9.52183 0.57793 9.16838 0.727651 8.88148 0.727651C 8.79416 0.727651 8.71935 0.715177 8.64451 0.686071C 7.6549 0.324324 6.89396 0.0998083 6.15799 0.0998083C 5.2266 0.0998083 4.43245 0.473996 3.6549 1.27233C 3.49274 1.43865 3.46778 1.70061 3.59667 1.89603L 5.88358 5.35132C 5.31809 5.77128 4.23696 6.65284 3.15172 7.95429C 2.24112 9.04785 1.51346 10.2162 0.989556 11.422C 0.332592 12.9397 -1.55925e-08 14.5239 -1.55925e-08 16.1289C -1.55925e-08 18.262 1.73803 20 3.87109 20L 13.3098 20C 15.4428 20 17.1808 18.262 17.1808 16.1289C 17.1808 14.5239 16.8482 12.9397 16.1913 11.422C 15.6674 10.2162 14.9439 9.04785 14.0291 7.95429C 12.9231 6.62373 11.8212 5.73389 11.2598 5.32225L 13.3804 1.38879C 13.4844 1.19336 13.4511 0.95215 13.289 0.798304C 12.7401 0.261922 12.158 9.84813e-17 11.5093 0ZM 11.5052 0.989637C 11.6964 0.989637 11.9667 1.02289 12.3077 1.26405L 10.3119 4.97296L 6.83578 4.97296L 4.66111 1.68813C 5.14344 1.27233 5.60497 1.08936 6.15799 1.08936C 6.74842 1.08936 7.41371 1.289 8.29936 1.61748C 8.48231 1.68401 8.67776 1.71729 8.87734 1.71729C 9.36383 1.71729 9.82951 1.52595 10.2744 1.33884C 10.7027 1.16005 11.1102 0.989637 11.5052 0.989637ZM 6.71932 5.97088L 10.4532 5.97088C 10.8316 6.23283 12.0623 7.14758 13.2765 8.61535C 15.2016 10.9355 16.1746 13.4595 16.1746 16.1289C 16.183 17.7131 14.894 19.0021 13.3098 19.0021L 3.87109 19.0021C 2.28689 19.0021 0.997921 17.7131 0.997921 16.1289C 0.997921 13.4636 1.97502 10.9355 3.89602 8.61535C 5.11015 7.14758 6.3451 6.23699 6.71932 5.97088ZM 8.69023 8.85655C 8.4158 8.85655 8.19127 9.08108 8.19127 9.35551L 8.19127 10.0499L 8.12053 10.0499C 7.15588 10.0499 6.37003 10.8358 6.37003 11.8004C 6.37003 12.7651 7.15588 13.551 8.12053 13.551L 9.26399 13.551C 9.67979 13.551 10.0166 13.8877 10.0166 14.3035C 10.0166 14.7193 9.67979 15.0561 9.26399 15.0561L 7.21414 15.0561C 6.93971 15.0561 6.71518 15.2806 6.71518 15.5551C 6.71518 15.8295 6.93971 16.054 7.21414 16.054L 8.19541 16.054L 8.19541 16.765C 8.19541 17.0395 8.41994 17.264 8.69437 17.264C 8.9688 17.264 9.19333 17.0395 9.19333 16.765L 9.19333 16.054L 9.27649 16.054L 9.289 16.054C 10.2453 16.0416 11.0146 15.2599 11.0146 14.3035C 11.0146 13.3389 10.2286 12.553 9.26399 12.553L 8.12053 12.553C 7.70473 12.553 7.36795 12.2162 7.36795 11.8004C 7.36795 11.3846 7.70473 11.0478 8.12053 11.0478L 10.133 11.0478C 10.4075 11.0478 10.632 10.8233 10.632 10.5488C 10.632 10.2744 10.4075 10.0499 10.133 10.0499L 9.18919 10.0499L 9.18919 9.35551C 9.18919 9.08108 8.96466 8.85655 8.69023 8.85655Z"/>
</defs>
</svg>
