<svg xmlns="http://www.w3.org/2000/svg" viewBox="634 483 15.711 20">
  <defs>
    <style>
      .cls-1 {
        fill: #868686;
      }
    </style>
  </defs>
  <g id="lock" transform="translate(846.4 534)">
    <g id="Vector">
      <path id="Path_18" data-name="Path 18" class="cls-1" d="M13.067,6.4V5.111a5.078,5.078,0,1,0-10.156,0V6.4H2.667A2.66,2.66,0,0,0,0,9.067v8.267A2.66,2.66,0,0,0,2.667,20H13.044a2.66,2.66,0,0,0,2.667-2.667V9.067A2.641,2.641,0,0,0,13.067,6.4ZM8.6,14.867a.726.726,0,0,1-.733.733.712.712,0,0,1-.733-.733V13.422a.733.733,0,0,1,1.467,0Zm3-8.467H4.356V5.111a3.622,3.622,0,1,1,7.244,0Z" transform="translate(-212.4 -51)"/>
    </g>
  </g>
</svg>
