<svg width="20" height="20" viewBox="0 0 20 20" version="1.1" xmlns="http://www.w3.org/2000/svg" xmlns:xlink="http://www.w3.org/1999/xlink">
<title>password</title>
<desc>Created using Figma</desc>
<g id="Canvas" transform="translate(204 -137)">
<g id="password">
<g id="Vector">
<use xlink:href="#path0_fill" transform="translate(-203.255 137)" fill="#868686"/>
</g>
</g>
</g>
<defs>
<path id="path0_fill" fill-rule="evenodd" d="M 1.40481 8.84953L 16.9469 8.84953C 17.7195 8.84953 18.3517 9.48174 18.3517 10.2545L 18.3517 18.5953C 18.3517 19.3678 17.7195 20 16.9469 20L 1.40481 20C 0.632205 20 -1.39834e-08 19.3678 -1.39834e-08 18.5953L -1.39834e-08 10.2543C -1.39834e-08 9.48162 0.632083 8.84953 1.40481 8.84953ZM 10.7728 13.3069C 10.7728 11.4027 7.57864 11.4324 7.57864 13.3069C 7.57864 13.9608 7.84892 14.2445 8.26216 14.5097C 8.18091 14.9322 8.24665 16.0107 8.24665 16.5011C 8.24665 17.6343 9.95986 17.6339 9.95986 16.5011C 9.95986 15.9344 10.0097 15.1238 9.9557 14.5868C 10.4434 14.3357 10.7728 13.9866 10.7728 13.3069ZM 12.5152 7.87984C 12.5151 1.53946 5.83623 1.58089 5.83635 7.99067C 4.72333 7.99067 3.61019 7.99067 2.49717 7.99067C 2.49717 -2.62559 15.8544 -2.66432 15.8544 7.87984C 14.7415 7.87984 15.8544 7.87984 12.5152 7.87984Z"/>
</defs>
</svg>
