<svg xmlns="http://www.w3.org/2000/svg" viewBox="0 0 18 16.65">
  <defs>
    <style>
      .cls-1 {
        fill: #428bca;
      }
    </style>
  </defs>
  <g id="noun_738286_cc" transform="translate(-10 -13)">
    <path id="Path_122" data-name="Path 122" class="cls-1" d="M27.55,15.25H23.725v-1.8a.45.45,0,1,0-.9,0v1.8h-7.65v-1.8a.45.45,0,0,0-.9,0v1.8H10.45a.45.45,0,0,0-.45.45V29.2a.45.45,0,0,0,.45.45h17.1A.45.45,0,0,0,28,29.2V15.7A.45.45,0,0,0,27.55,15.25Zm-13.275.9V17.5a.45.45,0,1,0,.9,0V16.15h7.65V17.5a.45.45,0,1,0,.9,0V16.15H27.1V20.2H10.9V16.15ZM10.9,28.75V21.1H27.1v7.65Z"/>
  </g>
</svg>
