<svg width="18" height="20" viewBox="0 0 18 20" version="1.1" xmlns="http://www.w3.org/2000/svg" xmlns:xlink="http://www.w3.org/1999/xlink">
<title>pincode</title>
<desc>Created using Figma</desc>
<g id="Canvas" transform="translate(201 57)">
<g id="pincode">
<g id="Group">
<g id="Vector">
<use xlink:href="#path0_fill" transform="translate(-195.465 -51.8831)" fill="#868686"/>
</g>
<g id="Vector">
<use xlink:href="#path1_fill" transform="translate(-199.652 -57)" fill="#868686"/>
</g>
<g id="Vector">
<use xlink:href="#path2_fill" transform="translate(-199.652 -50.0337)" fill="#868686"/>
</g>
<g id="Vector">
<use xlink:href="#path3_fill" transform="translate(-201 -52.0562)" fill="#868686"/>
</g>
<g id="Vector">
<use xlink:href="#path3_fill" transform="translate(-201 -43.0674)" fill="#868686"/>
</g>
</g>
</g>
</g>
<defs>
<path id="path0_fill" d="M 4.06047 2.36627C 4.06047 2.1865 4.038 1.91683 3.76833 1.64717L 2.64474 0.388742C 2.57732 0.298855 2.3526 0.0516636 1.97058 0.00671979C 1.76833 -0.0157521 1.4762 0.00671987 1.16159 0.253911C 1.09418 0.298855 0.577322 0.70335 0.352603 1.26515C 0.195299 1.57975 -0.950768 4.11908 1.97058 7.35503L 2.038 7.42245C 3.85822 9.48987 5.58856 9.91683 6.71215 9.91683C 7.36384 9.91683 7.7908 9.782 7.92564 9.73706C 8.48743 9.57975 8.95934 9.10784 9.00429 9.0629C 9.29642 8.77076 9.36384 8.47863 9.36384 8.27638C 9.36384 7.89436 9.13912 7.64717 9.04923 7.55728L 7.92564 6.29885C 7.67845 6.00672 7.40878 5.9393 7.22901 5.91683C 6.89193 5.89436 6.64474 6.07414 6.55485 6.14155L 5.92564 6.68088C 5.34137 6.3438 4.82451 5.89436 4.33013 5.35503L 4.28519 5.31009C 3.81328 4.77077 3.43125 4.20897 3.16159 3.57975L 3.76833 2.99548C 3.83575 2.95054 4.06047 2.72582 4.06047 2.36627ZM 3.16159 2.3438L 2.10541 3.35503L 2.21777 3.6247C 2.53238 4.45616 3.00429 5.19773 3.6335 5.89436L 3.67845 5.9393C 4.30766 6.63593 4.98182 7.17526 5.76833 7.60223L 6.038 7.73706L 7.16159 6.81571L 7.18406 6.79324C 7.18406 6.79324 7.20654 6.81571 7.25148 6.86065L 8.37507 8.11908L 8.39755 8.14155C 8.39755 8.14155 8.44249 8.1865 8.44249 8.23144C 8.44249 8.25391 8.42002 8.29886 8.3526 8.36627C 8.26272 8.45616 7.94811 8.74829 7.6335 8.81571L 7.58856 8.83818C 7.49867 8.88312 5.27395 9.69211 2.68968 6.79324L 2.62227 6.72582C 0.0604677 3.87189 1.11665 1.75953 1.18406 1.66964L 1.20654 1.6247C 1.31889 1.35503 1.6335 1.0629 1.74586 0.973012C 1.81328 0.928068 1.85822 0.905596 1.88069 0.905596C 1.90316 0.905596 1.92564 0.928068 1.97058 0.95054L 3.13912 2.25391C 3.16159 2.29885 3.16159 2.32133 3.16159 2.3438C 3.16159 2.3438 3.16159 2.32133 3.16159 2.3438Z"/>
<path id="path1_fill" d="M 16.1798 17.3034L 16.1798 2.69663C 16.1798 1.21348 14.9663 0 13.4831 0L 2.69663 0C 1.21348 0 0 1.21348 0 2.69663L 0 3.59551C 0 3.8427 0.202247 4.04494 0.449438 4.04494C 0.696629 4.04494 0.898876 3.8427 0.898876 3.59551L 0.898876 2.69663C 0.898876 1.70787 1.70787 0.898876 2.69663 0.898876L 13.4831 0.898876C 14.4719 0.898876 15.2809 1.70787 15.2809 2.69663L 15.2809 17.3034C 15.2809 18.2921 14.4719 19.1011 13.4831 19.1011L 2.69663 19.1011C 1.70787 19.1011 0.898876 18.2921 0.898876 17.3034L 0.898876 16.1798C 0.898876 15.9326 0.696629 15.7303 0.449438 15.7303C 0.202247 15.7303 0 15.9326 0 16.1798L 0 17.3034C 0 18.7865 1.21348 20 2.69663 20L 13.4831 20C 14.9663 20 16.1798 18.7865 16.1798 17.3034Z"/>
<path id="path2_fill" d="M 0 0.449438L 0 5.61798C 0 5.86517 0.202247 6.06742 0.449438 6.06742C 0.696629 6.06742 0.898876 5.86517 0.898876 5.61798L 0.898876 0.449438C 0.898876 0.202247 0.696629 0 0.449438 0C 0.202247 0 0 0.202247 0 0.449438Z"/>
<path id="path3_fill" d="M 0.449438 0.898876L 3.14607 0.898876C 3.39326 0.898876 3.59551 0.696629 3.59551 0.449438C 3.59551 0.202247 3.39326 0 3.14607 0L 0.449438 0C 0.202247 0 0 0.202247 0 0.449438C 0 0.696629 0.202247 0.898876 0.449438 0.898876Z"/>
</defs>
</svg>
