<svg xmlns="http://www.w3.org/2000/svg" viewBox="472 483 18.696 20">
  <defs>
    <style>
      .cls-1 {
        fill: #868686;
        fill-rule: evenodd;
      }
    </style>
  </defs>
  <g id="business_man" data-name="business man" transform="translate(692 507)">
    <g id="Vector">
      <path id="Path_1" data-name="Path 1" class="cls-1" d="M8.261,7.826A3.913,3.913,0,1,0,4.348,3.913,3.913,3.913,0,0,0,8.261,7.826Zm0-.87A3.043,3.043,0,1,0,5.217,3.913,3.043,3.043,0,0,0,8.261,6.957Z" transform="translate(-220 -24)"/>
      <path id="Path_2" data-name="Path 2" class="cls-1" d="M12.5,10.545a8.376,8.376,0,0,0-4.24-.98c-3.266,0-5.323,1.219-6.469,3.257A7.374,7.374,0,0,0,.984,15.08a7.171,7.171,0,0,0-.1.743c-.011.131-.014.221-.014.264a.435.435,0,0,1-.87,0A6.739,6.739,0,0,1,.13,14.92a8.234,8.234,0,0,1,.9-2.524c1.3-2.31,3.645-3.7,7.227-3.7a8.52,8.52,0,0,1,5.625,1.758q-.2-.019-.408-.019A4.361,4.361,0,0,0,12.5,10.545Z" transform="translate(-220 -24)"/>
      <path id="Path_3" data-name="Path 3" class="cls-1" d="M.87,15.652H9.13v.87H.435Z" transform="translate(-220 -24)"/>
      <path id="Path_4" data-name="Path 4" class="cls-1" d="M13.478,20a5.217,5.217,0,1,0-5.217-5.217A5.217,5.217,0,0,0,13.478,20Zm0-.87A4.348,4.348,0,1,0,9.13,14.783,4.348,4.348,0,0,0,13.478,19.13Z" transform="translate(-220 -24)"/>
      <path id="Path_5" data-name="Path 5" class="cls-1" d="M13.916,17.49a1.521,1.521,0,0,0,1.064-.814c.435-.919,0-1.566-.931-2.052-.134-.07-.094-.051-.473-.226-.351-.162-.321-.148-.436-.208-.564-.3-.721-.529-.542-.906.219-.464,1.222-.436,1.575-.186l.355.252.5-.709-.355-.252a1.994,1.994,0,0,0-.76-.306V11.3h-.87v.761a1.572,1.572,0,0,0-1.234.848c-.434.916,0,1.565.925,2.048.135.07.1.055.475.227s.32.147.434.207c.569.3.727.531.548.909-.219.464-1.222.436-1.575.186l-.355-.251-.5.709.355.252a2.1,2.1,0,0,0,.93.333v.728h.87Z" transform="translate(-220 -24)"/>
    </g>
  </g>
</svg>
