<svg width="20" height="20" viewBox="0 0 20 20" version="1.1" xmlns="http://www.w3.org/2000/svg" xmlns:xlink="http://www.w3.org/1999/xlink">
<title>Vector</title>
<desc>Created using Figma</desc>
<g id="Canvas" transform="translate(215 54)">
<g id="Vector">
<use xlink:href="#path0_fill" transform="translate(-215 -54)" fill="#868686"/>
</g>
</g>
<defs>
<path id="path0_fill" d="M 10 2.45867e-05C 6.64925 2.45867e-05 3.68262 1.65406 1.86772 4.18608C 1.86703 4.18724 1.86126 4.18492 1.86047 4.18608L 1.86047 4.19333C 0.689062 5.8311 1.47521e-08 7.83433 1.47521e-08 10C 1.47521e-08 12.1658 0.689062 14.169 1.86047 15.8067L 1.86046 15.8139C 1.86115 15.8139 1.86692 15.8139 1.86771 15.8139C 3.6826 18.3459 6.64924 20 9.99999 20C 13.3508 20 16.3174 18.3459 18.1323 15.8139C 18.1341 15.8111 18.1376 15.8095 18.1395 15.8067C 19.3109 14.169 20 12.1658 20 10C 20 7.83433 19.3109 5.8311 18.1395 4.19333C 18.1377 4.19059 18.1342 4.18882 18.1323 4.18608C 16.3174 1.65404 13.3508 -3.80179e-06 10 -3.80179e-06L 10 2.45867e-05ZM 9.76745 0.479677L 9.76745 4.18608L 6.12645 4.18608C 6.26366 3.83656 6.40973 3.50572 6.56977 3.19771C 7.42175 1.64103 8.46999 0.622458 9.76745 0.479677ZM 10.2326 0.479677C 11.4663 0.590421 12.5872 1.57515 13.4302 3.19771C 13.5903 3.50572 13.7364 3.83656 13.8736 4.18608L 10.2326 4.18608L 10.2326 0.479677ZM 8.03779 0.66863C 7.31119 1.18863 6.67112 1.98736 6.15552 2.97968C 5.96134 3.35342 5.78539 3.75907 5.625 4.18608L 2.44185 4.18608C 3.80461 2.4164 5.77089 1.14146 8.03779 0.66863ZM 11.9622 0.66863C 14.2291 1.14146 16.1954 2.4164 17.5582 4.18608L 14.375 4.18608C 14.2146 3.75907 14.0387 3.35342 13.8445 2.97968C 13.3289 1.98736 12.6888 1.18863 11.9622 0.66863L 11.9622 0.66863ZM 2.10028 4.6512L 5.45785 4.6512C 5.13158 5.634 4.89697 6.73439 4.76744 7.90703L 0.697664 7.90703C 0.962067 6.72423 1.44175 5.62269 2.10028 4.6512ZM 5.95204 4.6512L 9.76745 4.6512L 9.76745 7.90703L 5.23256 7.90703C 5.36762 6.72184 5.61594 5.62312 5.95204 4.6512ZM 10.2326 4.6512L 14.048 4.6512C 14.3841 5.62312 14.6324 6.72184 14.7675 7.90703L 10.2326 7.90703L 10.2326 4.6512ZM 14.5422 4.6512L 17.8997 4.6512C 18.5583 5.62269 19.0379 6.72423 19.3023 7.90703L 15.2326 7.90703C 15.103 6.73439 14.8684 5.634 14.5422 4.6512ZM 0.603187 8.37215L 4.72383 8.37215C 4.67879 8.9031 4.65116 9.44492 4.65116 10.0001C 4.65116 10.5552 4.67879 11.0975 4.72383 11.628L 0.603187 11.628C 0.512473 11.0994 0.465106 10.5546 0.465106 10.0001C 0.465106 9.4455 0.512473 8.90066 0.603187 8.37215ZM 5.18895 8.37215L 9.76745 8.37215L 9.76745 11.628L 5.18895 11.628C 5.14238 11.0983 5.11628 10.5561 5.11628 10.0001C 5.11628 9.4448 5.14252 8.90154 5.18895 8.37215L 5.18895 8.37215ZM 10.2326 8.37215L 14.8111 8.37215C 14.8575 8.90154 14.8837 9.4448 14.8837 10.0001C 14.8837 10.5561 14.8576 11.0983 14.8111 11.628L 10.2326 11.628L 10.2326 8.37215ZM 15.2762 8.37215L 19.3968 8.37215C 19.4875 8.90066 19.5349 9.4455 19.5349 10.0001C 19.5349 10.5546 19.4875 11.0994 19.3968 11.628L 15.2762 11.628C 15.3212 11.0975 15.3489 10.5552 15.3489 10.0001C 15.3489 9.44492 15.3212 8.9031 15.2762 8.37215ZM 0.697664 12.0931L 4.76744 12.0931C 4.89735 13.2679 5.13737 14.3652 5.46512 15.3489L 2.10028 15.3489C 1.44175 14.3774 0.962067 13.2759 0.697664 12.0931ZM 5.23982 12.0931L 9.76745 12.0931L 9.76745 15.3489L 5.9593 15.3489C 5.62222 14.3777 5.37544 13.2783 5.23982 12.0931ZM 10.2326 12.0931L 14.7602 12.0931C 14.6246 13.2783 14.3778 14.3777 14.0407 15.3489L 10.2326 15.3489L 10.2326 12.0931ZM 15.2326 12.0931L 19.3023 12.0931C 19.0379 13.2759 18.5583 14.3774 17.8997 15.3489L 14.5349 15.3489C 14.8626 14.3652 15.1027 13.2679 15.2326 12.0931ZM 2.44185 15.814L 5.625 15.814C 5.7852 16.2398 5.96163 16.64 6.15552 17.0131C 6.67399 18.011 7.32066 18.8097 8.05233 19.3315C 5.77951 18.861 3.80743 17.5874 2.44185 15.814ZM 6.12645 15.814L 9.76745 15.814L 9.76745 19.5204C 8.5337 19.4089 7.41282 18.4177 6.56977 16.7951C 6.41069 16.489 6.26298 16.1608 6.12645 15.814ZM 10.2326 15.814L 13.8736 15.814C 13.737 16.1608 13.5893 16.489 13.4302 16.7951C 12.5872 18.4177 11.4663 19.4089 10.2326 19.5204L 10.2326 15.814ZM 14.375 15.814L 17.5582 15.814C 16.1926 17.5874 14.2205 18.861 11.9477 19.3315C 12.6794 18.8097 13.326 18.011 13.8445 17.0131C 14.0384 16.64 14.2148 16.2398 14.375 15.814Z"/>
</defs>
</svg>
