<svg xmlns="http://www.w3.org/2000/svg" viewBox="587 483 13.954 20">
  <defs>
    <style>
      .cls-1 {
        fill: #868686;
      }
    </style>
  </defs>
  <g id="hand_tap" transform="translate(805.001 525)">
    <g id="Vector">
      <path id="Path_16" data-name="Path 16" class="cls-1" d="M5.347,0A3.957,3.957,0,0,0,1.394,3.953,4.374,4.374,0,0,0,2.135,6.41a.233.233,0,1,0,.378-.269,4.016,4.016,0,0,1-.654-2.187,3.488,3.488,0,1,1,6.977,0,4.016,4.016,0,0,1-.654,2.187.233.233,0,1,0,.378.269A4.374,4.374,0,0,0,9.3,3.953,3.957,3.957,0,0,0,5.347,0Zm0,2.791A1.629,1.629,0,0,0,3.72,4.419V11.8l-.487-.974A2.369,2.369,0,0,0,1.968,9.578,1.493,1.493,0,0,0,.813,9.8,1.637,1.637,0,0,0,.05,10.7a2.35,2.35,0,0,0,.2,1.475,29.551,29.551,0,0,0,4.462,7.74.236.236,0,0,0,.174.08h6.279a.24.24,0,0,0,.138-.051A5.679,5.679,0,0,0,12.877,17.7a12.672,12.672,0,0,0,.952-3.256,7.54,7.54,0,0,0-.058-3.06,2,2,0,0,0-1.65-1.613,1.534,1.534,0,0,0-.8.153,1.342,1.342,0,0,0-.472-.814,1.473,1.473,0,0,0-.858-.269,1.143,1.143,0,0,0-.807.414,1.263,1.263,0,0,0-.407-.6,1.5,1.5,0,0,0-.872-.276,1.586,1.586,0,0,0-.93.327V4.419A1.622,1.622,0,0,0,5.347,2.791Zm0,.465A1.155,1.155,0,0,1,6.51,4.419V9.3a.24.24,0,0,0,.182.225A.244.244,0,0,0,6.954,9.4a1.161,1.161,0,0,1,.952-.56,1.079,1.079,0,0,1,.6.182.837.837,0,0,1,.334.749A.244.244,0,0,0,9.018,10a.24.24,0,0,0,.262-.131c.211-.422.409-.562.727-.567a1.081,1.081,0,0,1,.574.182.833.833,0,0,1,.349.749.246.246,0,0,0,.392.167.763.763,0,0,1,.32-.131,2.4,2.4,0,0,1,.451-.036c.644.088,1.018.531,1.228,1.272a7.128,7.128,0,0,1,.051,2.863,12.754,12.754,0,0,1-.916,3.14,5.477,5.477,0,0,1-1.4,2.028H5A29.483,29.483,0,0,1,.682,12.006a1.959,1.959,0,0,1-.189-1.177,1.168,1.168,0,0,1,.567-.639,1.015,1.015,0,0,1,.785-.16,2.044,2.044,0,0,1,.974,1.01l.923,1.853A.24.24,0,0,0,4,13.023a.244.244,0,0,0,.182-.233V4.419A1.155,1.155,0,0,1,5.347,3.256Z" transform="translate(-218.001 -42)"/>
    </g>
  </g>
</svg>
