<svg id="Group_1088" data-name="Group 1088" xmlns="http://www.w3.org/2000/svg" viewBox="0 0 28.807 43.814">
  <defs>
    <style>
      .cls-1 {
        fill: #868686;
      }
    </style>
  </defs>
  <path id="Path_213" data-name="Path 213" class="cls-1" d="M54.807,23.4h0v-.18a1.068,1.068,0,0,0-.48-.66c-.54-.6-1.74-1.8-4.261-4.321l-4.5-4.5-.12-.12h-.06c-.06,0-.06-.06-.12-.06H45.2c-.06,0-.06,0-.12-.06H26.9a.923.923,0,0,0-.9.9V56.411a.905.905,0,0,0,.54.84,1.08,1.08,0,0,0,.96-.12l2.1-1.921,2.1,1.86a.913.913,0,0,0,1.2,0l2.1-1.86,2.1,1.86a.913.913,0,0,0,1.2,0l2.1-1.86,2.1,1.86a.913.913,0,0,0,1.2,0l2.1-1.86,2.1,1.86a.913.913,0,0,0,1.2,0l2.1-1.86,2.1,1.86a1.066,1.066,0,0,0,.6.24.761.761,0,0,0,.36-.06.941.941,0,0,0,.54-.84V23.4Zm-3.061-.9H45.805V16.561Zm.06,30.848a.913.913,0,0,0-1.2,0l-2.1,1.86-2.1-1.86a.913.913,0,0,0-1.2,0l-2.1,1.86L41,53.35a.913.913,0,0,0-1.2,0l-2.1,1.86-2.1-1.86a.913.913,0,0,0-1.2,0l-2.1,1.86-2.1-1.86a.87.87,0,0,0-1.2,0l-1.2,1.08V15.3H44v8.1a.923.923,0,0,0,.9.9h8.1V54.431Zm-1.5-4.141a.923.923,0,0,1-.9.9h-18a.9.9,0,0,1,0-1.8h18A.923.923,0,0,1,50.306,49.209Zm-9.9-10.5h-9a.9.9,0,0,1,0-1.8h9a.9.9,0,0,1,0,1.8Zm-3,4.8h-6a.9.9,0,0,1,0-1.8h6a.9.9,0,0,1,0,1.8Zm12-4.8h-3a.9.9,0,1,1,0-1.8h3a.9.9,0,1,1,0,1.8Zm0,4.8h-3a.9.9,0,1,1,0-1.8h3a.9.9,0,1,1,0,1.8Zm-12-9.6h-6a.9.9,0,0,1,0-1.8h6a.9.9,0,0,1,0,1.8Zm12,0h-3a.9.9,0,1,1,0-1.8h3a.9.9,0,1,1,0,1.8Zm-9-4.8h-9a.9.9,0,0,1,0-1.8h9a.9.9,0,0,1,0,1.8Zm9,0h-3a.9.9,0,1,1,0-1.8h3a.9.9,0,1,1,0,1.8Z" transform="translate(-26 -13.5)"/>
</svg>
