<svg xmlns="http://www.w3.org/2000/svg" viewBox="0 0 19.729 29.2">
  <defs>
    <style>
      .cls-1 {
        fill: #95989a;
      }
    </style>
  </defs>
  <g id="Group_1565" data-name="Group 1565" transform="translate(0)">
    <path id="Path_317" data-name="Path 317" class="cls-1" d="M39.98,14.194a.547.547,0,0,0-.133-.376.452.452,0,0,0-.348-.169H37.874V11.695a.547.547,0,0,0-.133-.376.452.452,0,0,0-.348-.169h-9.4a.391.391,0,0,0-.315.169q-.017,0-.017.019L20.416,19.53a.555.555,0,0,0-.149.376l-.017.019v17.4a.555.555,0,0,0,.149.376.407.407,0,0,0,.315.15h1.625v1.973a.555.555,0,0,0,.149.376.424.424,0,0,0,.332.15H39.5a.476.476,0,0,0,.348-.15.594.594,0,0,0,.133-.376V14.194m-2.106.507h1.161V39.279H23.284V37.851H37.393a.475.475,0,0,0,.348-.15.594.594,0,0,0,.133-.376V14.7m-9.9,5.731a.475.475,0,0,0,.348-.15.594.594,0,0,0,.133-.376V12.2h8.472V36.78H21.178V20.432h6.8M27.5,12.991v6.37H21.875l5.621-6.37M27.661,31.5a.316.316,0,0,0-.265.132.377.377,0,0,0-.116.282v2.593a.441.441,0,0,0,.116.3.336.336,0,0,0,.265.113.318.318,0,0,0,.249-.113.412.412,0,0,0,.133-.3V31.913a.355.355,0,0,0-.133-.282.3.3,0,0,0-.249-.132m1.277-1.785a.441.441,0,0,0-.116.3v4.491a.441.441,0,0,0,.116.3.368.368,0,0,0,.531,0,.485.485,0,0,0,.1-.3V30.015a.485.485,0,0,0-.1-.3.333.333,0,0,0-.531,0m2.122-2.368a.442.442,0,0,0-.116-.3.3.3,0,0,0-.249-.132.4.4,0,0,0-.282.132.485.485,0,0,0-.1.3v7.178a.485.485,0,0,0,.1.3.4.4,0,0,0,.282.132.3.3,0,0,0,.249-.132.442.442,0,0,0,.116-.3V27.347M26.55,32.89a.41.41,0,0,0-.1-.282.4.4,0,0,0-.282-.132.347.347,0,0,0-.265.132.41.41,0,0,0-.1.282v1.6a.485.485,0,0,0,.1.3.37.37,0,0,0,.265.113.429.429,0,0,0,.282-.113.485.485,0,0,0,.1-.3v-1.6m6.831-9.358a.569.569,0,0,0-.1.319V34.506a.485.485,0,0,0,.1.3.429.429,0,0,0,.282.113.37.37,0,0,0,.265-.113.485.485,0,0,0,.1-.3V23.852a.569.569,0,0,0-.1-.319.37.37,0,0,0-.265-.113.429.429,0,0,0-.282.113M31.906,25a.442.442,0,0,0-.116.3v9.207a.442.442,0,0,0,.116.3.37.37,0,0,0,.265.113.336.336,0,0,0,.265-.113.441.441,0,0,0,.116-.3V25.3a.441.441,0,0,0-.116-.3.316.316,0,0,0-.265-.132.347.347,0,0,0-.265.132m-1.078-2.123.216.244q-.033-.019-.05.019l-6.466,7.347.365.413,6.5-7.366.216.225a.707.707,0,0,0,.182.169.149.149,0,0,0,.116-.038q.083,0,.1-.056a.577.577,0,0,0,.017-.113l.149-1.5-1.31.169a.079.079,0,0,0-.1.038.117.117,0,0,0-.066.094.362.362,0,0,0-.017.132A.972.972,0,0,0,30.828,22.875Z" transform="translate(-20.25 -11.15)"/>
  </g>
</svg>
